<?xml version="1.0" standalone="no"?>
<!DOCTYPE svg PUBLIC "-//W3C//DTD SVG 20010904//EN"
 "http://www.w3.org/TR/2001/REC-SVG-20010904/DTD/svg10.dtd">
<svg version="1.0" xmlns="http://www.w3.org/2000/svg"
 width="700.000000pt" height="700.000000pt" viewBox="0 0 700.000000 700.000000"
 preserveAspectRatio="xMidYMid meet">
<metadata>
Created by potrace 1.14, written by Peter Selinger 2001-2017
</metadata>
<g transform="translate(0.000000,700.000000) scale(0.100000,-0.100000)"
fill="#000000" stroke="none">
<path d="M2100 4551 l0 -2101 -88 0 -87 0 -175 175 -175 175 -614 0 -614 0 6
-112 c8 -139 24 -270 52 -413 31 -159 111 -411 194 -610 l50 -120 -32 -8 c-18
-4 -106 -28 -197 -52 -91 -24 -183 -48 -205 -54 l-40 -11 0 -622 0 -623 3315
-1 c1823 0 3320 1 3325 3 7 2 10 215 10 620 0 537 -2 617 -15 624 -14 8 -226
66 -405 111 -114 29 -241 47 -307 43 -41 -2 -56 0 -51 9 3 6 28 41 55 78 26
37 48 70 48 72 0 3 14 25 30 50 94 138 219 447 254 626 3 14 7 34 9 45 10 44
27 204 30 270 l2 70 -788 3 -788 2 -174 -175 -175 -175 -1137 2 -1138 3 0 198
c0 109 3 201 8 204 10 6 60 9 312 18 263 10 495 18 805 30 69 3 186 7 260 10
74 3 194 7 265 10 72 3 193 7 270 10 208 8 362 13 540 21 242 10 291 11 408
15 l108 3 -5 30 c-10 60 -46 232 -60 284 -8 28 -13 52 -10 52 4 0 220 30 254
35 28 4 96 14 137 20 15 2 42 6 58 8 17 3 53 8 80 12 28 3 91 12 140 20 50 7
114 17 144 20 30 4 63 8 74 11 11 2 41 6 66 9 62 7 163 24 167 27 6 7 -46 176
-81 263 -175 434 -478 784 -940 1087 -329 216 -704 383 -1180 527 -82 24 -303
83 -365 96 -122 26 -221 46 -245 50 -16 3 -52 10 -80 15 -83 16 -105 19 -230
35 -140 18 -160 24 -283 81 -51 24 -95 44 -97 44 -3 0 -28 11 -57 24 -68 31
-163 68 -313 121 -66 24 -127 46 -135 49 -12 5 -15 23 -15 76 0 58 4 72 20 84
24 16 182 71 245 85 126 27 323 29 504 6 218 -29 408 -22 568 20 51 13 104 28
118 33 24 9 23 10 -20 21 -83 22 -115 34 -198 72 -46 22 -85 39 -87 39 -2 0
-36 15 -77 34 -149 69 -210 96 -214 96 -3 0 -26 10 -52 22 -83 37 -298 106
-399 127 -157 33 -158 33 -375 38 l-208 5 0 -2101z m193 952 c114 -386 155
-577 184 -863 10 -97 10 -513 0 -610 -8 -78 -46 -309 -52 -319 -1 -3 -6 -22
-9 -41 -13 -84 -83 -317 -123 -408 -18 -42 -18 -19 -18 1108 0 632 3 1150 6
1150 4 0 9 -8 12 -17z"/>
</g>
</svg>
